# This file uses centimeters as units for non-parametric coordinates.

mtllib BingoCard.mtl
g default
v -5.313383 -0.015589 5.313383
v 5.313383 -0.015589 5.313383
v -5.313383 0.015589 5.313383
v 5.313383 0.015589 5.313383
v -5.313383 0.015589 -5.313383
v 5.313383 0.015589 -5.313383
v -5.313383 -0.015589 -5.313383
v 5.313383 -0.015589 -5.313383
vt 0.100821 0.801284
vt 0.199567 0.801284
vt 0.199567 0.898188
vt 0.100821 0.898188
vt 0.101095 0.801284
vt 0.199841 0.801284
vt 0.199841 0.898188
vt 0.101095 0.898188
vt 0.498130 0.999933
vt 0.498130 0.399709
vt 0.999363 0.399709
vt 0.999363 0.999933
vt 0.498872 0.001955
vt 0.498872 0.598764
vt 0.000358 0.598764
vt 0.000358 0.001955
vt 0.100821 0.801055
vt 0.199567 0.801055
vt 0.199567 0.897958
vt 0.100821 0.897958
vt 0.101338 0.898344
vt 0.101338 0.801440
vt 0.200084 0.801440
vt 0.200084 0.898344
vn 0.000000 0.000000 1.000000
vn 0.000000 0.000000 1.000000
vn 0.000000 0.000000 1.000000
vn 0.000000 0.000000 1.000000
vn 0.000000 1.000000 0.000000
vn 0.000000 1.000000 0.000000
vn 0.000000 1.000000 0.000000
vn 0.000000 1.000000 0.000000
vn 0.000000 0.000000 -1.000000
vn 0.000000 0.000000 -1.000000
vn 0.000000 0.000000 -1.000000
vn 0.000000 0.000000 -1.000000
vn 0.000000 -1.000000 0.000000
vn 0.000000 -1.000000 0.000000
vn 0.000000 -1.000000 0.000000
vn 0.000000 -1.000000 0.000000
vn 1.000000 0.000000 0.000000
vn 1.000000 0.000000 0.000000
vn 1.000000 0.000000 0.000000
vn 1.000000 0.000000 0.000000
vn -1.000000 0.000000 0.000000
vn -1.000000 0.000000 0.000000
vn -1.000000 0.000000 0.000000
vn -1.000000 0.000000 0.000000
s off
g pCube1
usemtl lambert2SG
f 1/17/1 2/18/2 4/19/3 3/20/4
f 3/9/5 4/10/6 6/11/7 5/12/8
f 5/21/9 6/22/10 8/23/11 7/24/12
f 7/13/13 8/14/14 2/15/15 1/16/16
f 2/1/17 8/2/18 6/3/19 4/4/20
f 7/5/21 1/6/22 3/7/23 5/8/24
